<svg xmlns="http://www.w3.org/2000/svg" width="952.101" height="224" viewBox="0 0 952.101 224"><circle fill="#333" cx="111.611" cy="111.687" r="103.687"/><path fill="#333" d="M604.822 66.686h10.223v81.132h50.98v9.447h-61.2l-.003-90.58zm113.607-.648h9.58l41.267 91.23h-10.994l-10.61-23.94h-49.302l-10.733 23.94H677.15l41.28-91.23zm25.237 57.973L723.08 77.947l-20.698 46.066h41.285zm43.47-57.324h38.56c10.35 0 18.502 2.98 23.68 8.026 3.752 3.88 5.822 8.666 5.822 14.49v.264c0 11.77-7.253 17.854-14.366 20.96 10.736 3.234 19.41 9.443 19.41 21.865v.258c0 15.53-13.07 24.72-32.87 24.72h-40.24v-90.58l.002-.002zm57.708 23.938c0-8.925-7.117-14.748-20.053-14.748h-27.56v31.183h26.776c12.3 0 20.836-5.564 20.836-16.177v-.26zm-19.02 25.493H797.23v31.96h30.408c13.717 0 22.252-6.082 22.252-16.177v-.252c0-9.836-8.275-15.53-24.068-15.53zm48.774 27.945l6.35-7.5c9.442 8.537 18.5 12.81 31.056 12.81 12.158 0 20.186-6.468 20.186-15.397v-.26c0-8.41-4.53-13.197-23.555-17.208-20.83-4.53-30.41-11.255-30.41-26.14v-.256c0-14.232 12.55-24.71 29.766-24.71 13.203 0 22.64 3.75 31.834 11.125l-5.957 7.89c-8.406-6.86-16.82-9.834-26.137-9.834-11.773 0-19.277 6.474-19.277 14.623v.264c0 8.535 4.658 13.33 24.582 17.592 20.19 4.402 29.508 11.775 29.508 25.62v.256c0 15.53-12.947 25.623-30.926 25.623-14.365 0-26.145-4.786-37.016-14.495l-.005-.003zM539.818 156.83c-.037 0-.072-.016-.1-.044L511.79 126.97l-27.93 29.816c-.027.028-.06.045-.098.045h-28.03c-.053 0-.1-.03-.12-.076-.02-.05-.013-.105.023-.146l41.957-44.79-41.957-44.792c-.036-.038-.045-.095-.023-.145.02-.046.07-.08.12-.08h28.03c.035 0 .07.017.098.044l27.93 29.82 27.928-29.82c.027-.027.06-.042.1-.042h28.027c.053 0 .102.034.12.08.022.05.01.106-.024.145L525.99 111.82l41.955 44.79c.035.04.047.098.025.146-.02.046-.068.078-.12.078H539.82l-.002-.004z"/><path d="M567.843 66.933h.004m-.004 0l-42.04 44.883 42.04 44.88H539.82l-28.03-29.92-28.026 29.92h-28.027l42.04-44.88-42.04-44.883h28.027l28.027 29.922 28.03-29.922h28.023m.004-.265h-28.03c-.075 0-.144.03-.194.083L511.79 96.467 483.96 66.75c-.05-.05-.12-.082-.195-.082H455.74c-.105 0-.2.062-.245.16-.042.098-.022.21.05.29l41.87 44.698-41.87 44.7c-.072.08-.092.19-.05.287.042.1.14.16.244.16h28.025c.076 0 .146-.03.195-.082l27.832-29.71 27.834 29.712c.05.054.12.083.193.083h28.024c.105 0 .203-.062.244-.16.04-.096.02-.21-.05-.287l-41.87-44.7 41.86-44.69c.05-.047.08-.116.08-.19.005-.15-.112-.268-.26-.268v-.002z"/><path fill="#333" d="M364.974 156.83c-.074 0-.133-.06-.133-.133V66.933c0-.073.062-.132.135-.132h22.44c.074 0 .132.06.132.134v74.67h59.712c.072 0 .13.062.13.134v14.96c0 .073-.06.134-.13.134h-82.285v-.002z"/><path d="M387.413 66.933v74.803h59.845v14.96h-82.284V66.934h22.44m0-.265h-22.44c-.146 0-.266.12-.266.265v89.764c0 .146.118.267.266.267h82.284c.146 0 .266-.12.266-.267v-14.96c0-.148-.12-.265-.266-.265h-59.58v-74.54c0-.145-.12-.264-.264-.264z"/><path fill="#333" d="M265.87 156.83c-.072 0-.132-.06-.132-.133V66.933c0-.073.06-.132.133-.132h83.215c.073 0 .133.06.133.134v14.96c0 .076-.06.134-.133.134h-60.64V108.2h53.16c.073 0 .133.06.133.133v14.96c0 .072-.06.134-.134.134h-53.158v33.27c0 .075-.06.133-.133.133H265.87z"/><path d="M349.085 66.933v14.96h-60.772v26.44h53.292v14.96h-53.292v33.4h-22.44v-89.76h83.212m0-.265h-83.213c-.147 0-.266.12-.266.265v89.764c0 .146.12.267.266.267h22.44c.148 0 .267-.12.267-.267V123.56h53.023c.146 0 .266-.12.266-.268v-14.96c0-.147-.12-.266-.267-.266H288.58V82.16h60.505c.147 0 .265-.12.265-.265v-14.96c0-.148-.118-.267-.265-.267z"/></svg>